<svg xmlns="http://www.w3.org/2000/svg" xmlns:xlink="http://www.w3.org/1999/xlink" height="100" width="100" version="1.1"><path d="M996 1652q41 0 41 -120q0 -75 -44 -103q-43 -26 -95 -32l-124 -13q-83 -9 -122 -85q-25 -50 -31 -102q-9 -70 -9 -176q0 -366 13 -446q13 -82 45 -120q31 -38 120 -78q40 -18 71 -22q86 -10 97 -27q8 -12 8 -24q0 -32 -56 -32q-98 0 -195 46q-118 55 -158 218
q-21 88 -21 530q0 177 41 255q44 85 127 118q33 14 145 23q76 7 100 24q20 14 20 53q0 9 -2 24q-6 43 -6 58q0 31 35 31zM834 1126h-35q-20 0 -56 -2h-12q-42 0 -42 41q0 17 17 23q19 6 132 6h51l157 -1l121 -1l84 -1q32 0 41 -5q13 -8 13 -30q0 -34 -33 -33q-20 1 -102 1
q1 -27 1 -40q0 -77 -33 -114q-25 -27 -100 -20q-1 0 -5 1v-50v-62q25 1 44 1h17q28 -1 32 -1q24 0 35 5q18 8 19 41q1 63 7 74q8 14 24 14q34 0 34 -51q0 -106 -24 -129q-27 -26 -99 -26l-89 1q1 -51 0 -100q72 -3 147 -2v9q0 55 30 55q15 0 22 -14q8 -18 8 -130
q0 -89 -21 -124q-38 -63 -212 -63q-138 0 -189 28q-56 30 -56 132q0 3 1 25v42v28l-1 12q5 50 8 53q8 10 24 10q26 0 26 -56v-7h58q38 0 100 -3v30q0 27 -3 79h-87q-77 -1 -106 26q-27 24 -27 105q0 78 27 78q16 0 27 -12q4 -4 5 -63q1 -63 55 -63q5 0 41 1q13 1 30 1
q10 0 35 -1v48q0 24 -2 56q-89 1 -114 30q-26 30 -26 118q0 4 1 30zM820 601q2 -20 2 -34l-1 -31q0 -25 24 -47q26 -24 137 -24q160 0 183 29q13 17 13 84v23h-358zM1108 1124q-28 1 -42 1q-15 0 -29 -1q-51 -1 -63 -1l-54 2q-7 0 -22 -1q-3 -57 -3 -61q0 -46 47 -46
q140 0 151 9q16 14 16 62q0 9 -1 36zM1082 1251h-84q-163 0 -189 5q-24 4 -24 34q0 18 12 24t60 6h94q69 -1 96 -1h30q61 1 77 1q34 0 49 -4q20 -4 20 -25q0 -23 -17 -32q-14 -8 -124 -8zM1120 1487q100 5 215 -35q58 -19 85 -60q31 -44 40 -165q10 -147 10 -456
q0 -247 -33 -327q-30 -71 -104 -117q-19 -13 -167 -84q-91 -44 -91 -122q0 -63 28 -129q16 -36 91 -148q29 -44 29 -66q0 -30 -27 -30q-51 0 -145 191q-47 96 -47 180q0 92 71 150q35 28 59.5 41t135.5 63q41 18 81 68q33 40 42 112q8 69 8 183q0 352 -16 505
q-11 111 -71 142q-38 20 -123 21q-108 1 -122 10q-14 8 -14 27q0 43 65 46z" style="" transform="scale(0.05 -0.05) translate(0 -1700)"/></svg>