<svg xmlns="http://www.w3.org/2000/svg" xmlns:xlink="http://www.w3.org/1999/xlink" height="100" width="100" version="1.1" style="background:white;"><path fill="#ccc" d="M1090 1271q50 -1 75 -1q175 -3 221 -38q44 -35 44 -90q0 -15 -5 -46q-2 -13 -5 -25v-2q-30 -94 -111 -122q-74 -26 -241 -30q-7 -77 -27 -100q-19 -25 -64 -32q-6 -1 -43 -6l3 -51q51 11 67 11q35 0 35 -28q0 -14 -18 -21q-16 -7 -81 -17l3 -50q19 1 28 1q59 0 74 -28 q10 -17 10 -55q0 -7 -1 -27l-2 -122q-2 -105 -10 -120q-6 -9 -21 -9q-10 0 -14 5q-12 13 -12 98q0 24 2 61h-177v-16q0 -24 8 -50q5 -19 5 -30q0 -25 -23 -25q-50 0 -50 119q0 164 120 196l-7 153q-84 -8 -135 -28q-128 -48 -128 -179q0 -143 94 -244q58 -63 204 -126 q57 -24 63 -30q5 -5 5 -15q0 -16 -11 -29.5t-25 -13.5q-33 0 -157 67q-247 133 -247 395q0 113 77 183q82 74 286 90q66 6 80 23q8 12 10 48q-359 0 -359 181v8q0 12 3 29q9 65 50 96q55 43 265 43l-75 89q-109 -23 -220 -23q-90 0 -90 50q0 34 62 34q103 -1 212 19 q-94 111 -94 146q0 29 34 29q33 0 73 -49q72 -89 179 -246q34 52 51 82q115 199 132 214q17 14 31 14q16 0 29 -13q13 -15 13 -28q0 -21 -30 -57q-21 -26 -62 -94h93h65l47 1q91 0 91 -30q0 -16 -15 -29q-12 -9 -24 -9l-290 -1zM947 1195q5 -94 19 -199h31q51 1 127 2 l-29 197h-89h-18h-41zM871 1195q-92 0 -132 -20l10 1q-34 -33 -42 -58l-1 -9q2 -95 181 -112zM1333 1069q5 36 5 55q0 32 -12 46q-22 28 -107 28q-10 0 -45 -1l31 -194q70 9 92 21q25 14 36 45zM826 485h173q1 14 1 21q0 46 -6 56q-7 11 -38 11q-87 0 -107 -26 q-12 -16 -23 -62zM1210 598v-43q-5 -248 -14 -277q-8 -26 -30 -25q-30 2 -30 38q0 2 4 95q6 202 6 246q-42 43 -42 94q0 23 21 23q13 0 37 -40q26 -43 93 -55q68 -13 81 -29q14 -18 19 -142l1 -124q0 -95 -37 -95q-15 0 -22 27q-6 22 -9 203l1 36q0 40 -18 52q-8 5 -61 16z M1168 870q99 0 171 -20q214 -60 214 -324q0 -225 -159 -339q-50 -36 -98 -51l-126 -38q-103 -32 -112 -304q-1 -46 -27 -46q-51 0 -51 93q0 77 26 166q30 106 86 134q20 10 182 63q77 25 139 106q65 85 65 239q0 138 -111 204q-68 40 -180 40q-91 0 -91 35q0 42 72 42z" transform="scale(0.04 -0.04) translate(220 -1950)"/></svg>